<svg xmlns="http://www.w3.org/2000/svg" viewBox="0 0 40 27"><path d="M0 0v27h40V0zm26.42 7a4.93 4.93 0 0 0 .73 0 .26.26 0 0 0 .23-.19l.21-.81c0-.11.08-.12.11 0 .1.31.15.46.25.76a.25.25 0 0 0 .24.15h.77c.1 0 .12 0 0 .1-.25.19-.37.26-.61.45a.28.28 0 0 0-.08.29l.25.66c0 .09 0 .12-.09.07l-.61-.35a.27.27 0 0 0-.28 0l-.54.48c-.07.06-.11 0-.09-.06l.19-.68a.26.26 0 0 0-.1-.26c-.25-.18-.37-.28-.61-.48-.07-.07-.06-.13.03-.13zm-5.3-1l.84.24a.2.2 0 0 0 .25-.1l.23-.68c0-.09.09-.08.12 0l.28.83a.43.43 0 0 0 .26.25l.83.24c.11 0 .12.09 0 .12l-.67.26a.2.2 0 0 0-.09.25l.25.79c0 .1 0 .12-.09 0l-.64-.65a.34.34 0 0 0-.31-.1l-.62.2c-.08 0-.13 0-.1-.09l.21-.6a.33.33 0 0 0-.11-.3l-.7-.63C21 6 21 6 21.13 6zm-5.61.24l1.07.11c.14 0 .27 0 .29-.14l.18-.72c0-.09.09-.08.15 0 .19.32.28.48.45.81a.57.57 0 0 0 .35.23c.4.08.54.12 1 .24.13 0 .15.1.06.13-.29.1-.45.13-.75.25a.19.19 0 0 0-.08.27c.16.33.24.5.39.85.05.11 0 .13-.11 0a8 8 0 0 0-.86-.65.46.46 0 0 0-.39-.07c-.3.13-.45.22-.75.36-.1 0-.16 0-.13-.08.08-.28.12-.44.19-.72a.32.32 0 0 0-.18-.3c-.37-.22-.57-.33-.95-.54-.07 0-.06-.05.08-.03zm-4.2 3.08c.52-.11.67-.13 1.16-.2a.43.43 0 0 0 .33-.2l.26-.74c0-.09.11-.1.16 0l.41.7A.42.42 0 0 0 14 9c.46 0 .56-.05 1-.08.13 0 .15 0 .06.11-.36.23-.47.33-.78.52a.21.21 0 0 0-.1.27c.15.29.23.43.38.73 0 .1 0 .12-.12.06a9.33 9.33 0 0 0-.88-.45.5.5 0 0 0-.42 0l-.9.55c-.12.08-.19.07-.14-.05.15-.37.2-.46.32-.76a.21.21 0 0 0-.16-.25 8.89 8.89 0 0 0-1-.25c-.12.01-.1-.05.05-.08zm-2.23 3.91h1.14a.53.53 0 0 0 .39-.18l.55-.74c.07-.09.14-.09.15 0 0 .31.06.46.09.78a.29.29 0 0 0 .25.21c.44.06.51.07 1 .16.12 0 .12.08 0 .12l-.92.33a.35.35 0 0 0-.23.28v.8c0 .11-.07.13-.14.06-.24-.23-.36-.34-.61-.55a.43.43 0 0 0-.4 0l-1 .47c-.14.06-.19 0-.1-.07l.54-.9a.19.19 0 0 0 0-.29 6.78 6.78 0 0 0-.79-.37c-.11-.05-.07-.1.08-.11zm.28 7.32l-.9-.17c-.15 0-.27.14-.41.28l-.83.87c-.11.12-.17.1-.13 0 .13-.42.17-.59.27-1 0-.14.12-.31-.13-.35L6.66 20c-.24 0-.17-.13-.06-.21l1-.66a.8.8 0 0 0 .36-.48c.15-.44.22-.74.37-1.23 0-.14.14-.16.18-.05.11.34.2.55.33.91 0 .11.21.1.43-.07a39 39 0 0 1 6-4.13A28.72 28.72 0 0 1 23.48 11c.21 0 .19.08 0 .13a30.52 30.52 0 0 0-14.16 8 .46.46 0 0 0-.08.46c.13.36.1.3.27.73.07.16.08.26-.15.22zm7.28-2.1a8.73 8.73 0 0 0-.81.52.38.38 0 0 0-.15.36c.08.37.12.56.2 1 0 .13 0 .17-.12.09-.28-.24-.42-.36-.71-.58a.32.32 0 0 0-.37 0l-.84.66c-.11.09-.16.05-.11-.08l.39-1a.3.3 0 0 0-.08-.35c-.3-.2-.44-.29-.75-.47-.1-.06-.07-.12.06-.14l1-.1a.41.41 0 0 0 .32-.23l.36-.89c0-.11.11-.11.14 0 .09.33.14.5.22.85a.29.29 0 0 0 .28.2 5.7 5.7 0 0 1 .94 0c.12.03.13.09.03.15zm5.08.57l-.68.24a.2.2 0 0 0-.09.26l.31.84c0 .11 0 .13-.1 0l-.73-.67a.36.36 0 0 0-.34-.09l-.71.31c-.1 0-.14 0-.11-.1l.27-.74a.36.36 0 0 0-.11-.34l-.7-.7c-.09-.09-.07-.14 0-.1l.86.28a.21.21 0 0 0 .26-.1l.25-.67c0-.08.09-.06.12 0l.28.84a.47.47 0 0 0 .27.26l.87.28c.15.11.17.18.09.18zm4.56-1.35l-.74.29a.18.18 0 0 0-.08.26l.4.8c.05.1 0 .13-.11 0a7.63 7.63 0 0 1-.84-.66.44.44 0 0 0-.36-.12l-.7.22c-.09 0-.15 0-.12-.11l.21-.68a.4.4 0 0 0-.13-.34L23 16.6c-.1-.1-.08-.14 0-.1l.91.36c.12 0 .24 0 .27-.07l.22-.67c0-.09.09-.06.13 0 .13.35.2.52.35.87a.57.57 0 0 0 .31.28 6.75 6.75 0 0 0 1 .23c.17.07.19.12.1.16zm3-3c-.29.2-.43.3-.71.47a.21.21 0 0 0-.09.25l.32.63c0 .08 0 .11-.1.05-.3-.16-.44-.25-.73-.43a.39.39 0 0 0-.33 0l-.64.28c-.08 0-.13 0-.1-.08l.21-.59a.27.27 0 0 0-.11-.27c-.28-.22-.41-.35-.68-.58-.09-.08-.07-.12 0-.09.32.08.49.12.82.17a.23.23 0 0 0 .25-.13l.24-.71c0-.09.09-.09.12 0l.29.76a.33.33 0 0 0 .27.19 7.46 7.46 0 0 0 .9 0c.12-.07.14-.02.05.04zm2.4-4.67l-.7.71a.34.34 0 0 0-.11.31c.09.24.14.36.24.6 0 .08 0 .12-.1.1a5.19 5.19 0 0 1-.66-.2.35.35 0 0 0-.31.09l-.65.58c-.08.07-.12 0-.09 0 .09-.29.16-.44.27-.75a.2.2 0 0 0-.08-.25c-.25-.12-.37-.19-.61-.33-.08 0-.06-.09 0-.11.31 0 .46-.08.78-.16a.41.41 0 0 0 .25-.24l.29-.82c0-.11.09-.13.12 0 .08.28.12.41.21.68a.19.19 0 0 0 .25.09c.33-.11.5-.18.84-.32.13-.07.15.02.06.02zm2.61-4.2l-.63.58a.28.28 0 0 0-.1.26c.09.2.14.3.24.48s0 .1-.1.09a6.46 6.46 0 0 1-.65-.1.43.43 0 0 0-.31.12l-.74.63c-.09.08-.13.07-.09 0l.3-.73a.15.15 0 0 0-.07-.22c-.25-.08-.37-.12-.61-.21-.08 0-.06-.08 0-.11l.8-.24a.47.47 0 0 0 .26-.23l.3-.74c0-.1.09-.11.11 0 .07.24.1.36.18.59a.18.18 0 0 0 .23.07l.77-.25c.18-.09.19-.06.11.01z" fill="#8dc63f"/></svg>